<svg xmlns="http://www.w3.org/2000/svg" viewBox="0 0 179 212">
  <g fill="#E7E7E7" fill-rule="evenodd">
    <path d="M178.246 201.959c-.043.18-.09.36-.141.539v.002c-1.558 5.473-6.594 9.493-12.552 9.493H13.07c-5.958 0-10.994-4.02-12.551-9.493l-.001-.002a12.823 12.823 0 0 1-.264-1.107l-.03-.174a12.617 12.617 0 0 1-.07-.416c-.012-.085-.021-.17-.032-.257-.015-.117-.03-.234-.042-.352-.011-.12-.019-.239-.027-.36-.006-.088-.014-.177-.019-.266-.01-.213-.016-.427-.016-.641v-22.053c0-15.894 12.3-32.765 27.417-37.608l16.24-5.203.149-.18.002-.002c.061-.074.126-.146.195-.215l7.72-7.73a6.401 6.401 0 0 1 4.415-1.881c.118-1.167.19-2.406.223-3.738-8.407-9.614-13.652-22.626-15.661-35.702a3.112 3.112 0 0 1-.908-1.91l-1.628-17.085a3.11 3.11 0 0 1-1.7-2.772V15.057c0-1.17.655-2.241 1.696-2.773 32.019-16.334 70.25-16.334 102.267 0a3.113 3.113 0 0 1 1.696 2.773v47.788a3.11 3.11 0 0 1-1.7 2.772l-1.628 17.085a3.112 3.112 0 0 1-.908 1.91c-2.01 13.084-7.26 26.103-15.676 35.72a47.294 47.294 0 0 0 .208 3.721 6.399 6.399 0 0 1 4.444 1.88l7.72 7.73c.07.069.135.141.196.215l.002.002.15.18 9.69 3.105 6.548 2.098c6.614 2.12 12.689 6.54 17.43 12.175a45.658 45.658 0 0 1 2.857 3.778 45.06 45.06 0 0 1 3.156 5.447c2.521 5.166 3.975 10.745 3.975 16.209v22.052c0 .215-.006.429-.016.641-.005.09-.013.178-.02.267-.007.12-.015.24-.026.36-.012.118-.027.235-.042.352-.01.086-.02.172-.033.257-.02.139-.044.278-.068.416l-.031.174c-.03.16-.065.318-.102.475l-.021.093zm-135.564-39.85a3.114 3.114 0 0 1-.894 2.507l-7.875 7.885a.208.208 0 0 0-.017.274c.064.083.124.169.18.258l20.42 32.62h13.803l-23.143-63.62-10.64 12.881-.051.06a.194.194 0 0 0-.05.164c.013.093.07.13.09.144l6.809 4.545a3.112 3.112 0 0 1 1.368 2.282zm5.348-73.307a3.1 3.1 0 0 0 2.946.034 3.112 3.112 0 0 0 1.65-2.445c.611-6.084 1.758-15.82 2.655-20.432h68.062c.897 4.612 2.043 14.348 2.654 20.432a3.112 3.112 0 0 0 3.092 2.8 3.1 3.1 0 0 0 1.504-.389l.226-.125c-4.733 21.182-18.72 40.756-41.508 40.756-22.786 0-36.775-19.574-41.507-40.756l.226.125zm14.16 37.17c7.291 5.99 16.343 9.684 27.122 9.684 10.763 0 19.802-3.682 27.088-9.656.013.107.024.217.039.323.031.234.09.458.17.67l-27.297 24.6-27.327-24.627c.072-.2.126-.41.157-.628.017-.122.031-.245.047-.366zm23.807 39.97a.218.218 0 0 1-.207-.207v-2.03l3.522-3.527 3.522 3.526v2.03c0 .107-.1.208-.207.208h-6.63zm1.71 6.223h3.21l1.75 33.605h-6.71l1.75-33.605zm49.13-7.55l7.875 7.886a.208.208 0 0 1 .017.274 3.19 3.19 0 0 0-.18.258l-20.42 32.62h-13.804l23.143-63.62 10.641 12.881.051.06c.017.02.061.07.05.164-.013.093-.07.13-.091.144l-6.808 4.545a3.11 3.11 0 0 0-.474 4.789zm35.553 12.257v22.053c0 .222-.013.441-.034.658-.01.103-.027.203-.042.304-.015.11-.03.218-.05.325a6.7 6.7 0 0 1-.095.408c-.016.062-.03.124-.048.185a6.715 6.715 0 0 1-.186.553 6.842 6.842 0 0 1-5.415 4.294h-35.056l18.281-29.202a6.447 6.447 0 0 0-.638-8.35l-5.195-5.2 3.654-2.44a6.433 6.433 0 0 0 1.311-9.537l-6.588-7.976 7.004 2.244c12.52 4.011 23.097 18.519 23.097 31.681zm-44.06-40.688l-22.675 31.217a.194.194 0 0 1-.152.085.198.198 0 0 1-.163-.06l-11.515-11.53 28.376-25.57a.207.207 0 0 1 .285.008l5.844 5.85zM42.698 16.983c29.331-14.306 63.898-14.305 93.229 0v42.752h-93.23V16.983zm13.44 113.351a.207.207 0 0 1 .285-.007l28.375 25.57-11.514 11.53a.193.193 0 0 1-.163.06.195.195 0 0 1-.152-.085l-22.675-31.218 5.844-5.85zM6.235 176.872c0-13.162 10.576-27.67 23.096-31.68l7.004-2.245-6.589 7.976a6.438 6.438 0 0 0 1.312 9.538l3.654 2.439-5.195 5.201a6.448 6.448 0 0 0-.638 8.35l18.28 29.202H12.104a6.842 6.842 0 0 1-5.415-4.295l-.024-.065a6.783 6.783 0 0 1-.162-.487c-.018-.061-.032-.124-.048-.186a6.698 6.698 0 0 1-.095-.408c-.02-.106-.035-.215-.05-.324-.014-.101-.032-.202-.042-.304a6.923 6.923 0 0 1-.034-.659v-22.053z"/>
    <path d="M102.572 29.864H92.42V19.7a3.11 3.11 0 0 0-3.108-3.112 3.11 3.11 0 0 0-3.107 3.112v10.164H76.053a3.11 3.11 0 0 0-3.108 3.111 3.11 3.11 0 0 0 3.108 3.112h10.152v10.164a3.11 3.11 0 0 0 3.107 3.112 3.11 3.11 0 0 0 3.108-3.112V36.087h10.152a3.11 3.11 0 0 0 3.107-3.112 3.11 3.11 0 0 0-3.107-3.111z"/>
  </g>
</svg>
