<svg width="112" height="109" viewBox="0 0 112 109" fill="none" xmlns="http://www.w3.org/2000/svg">
  <path d="M107.544 71.4648H85.0195V108.561H109.61C110.734 108.561 111.645 107.62 111.645 106.458V75.7028C111.645 73.3621 109.809 71.4648 107.544 71.4648Z" fill="#D1EFF2"/>
  <path d="M85.0195 99.4697V108.561H109.61C110.734 108.561 111.645 107.619 111.645 106.458V99.4697H85.0195Z" fill="#BDC0C3"/>
  <path d="M111.646 97.7847H85.0215V101.154H111.646V97.7847Z" fill="#76B7EB"/>
  <path d="M102.277 89.4706H94.388C93.2881 89.4706 92.3965 88.5492 92.3965 87.4127V81.4853C92.3965 80.3488 93.2881 79.4272 94.388 79.4272H102.277C103.376 79.4272 104.268 80.3486 104.268 81.4853V87.4127C104.268 88.549 103.376 89.4706 102.277 89.4706Z" fill="#B3E7FF"/>
  <path d="M102.276 91.1552H94.3875C92.3904 91.1552 90.7656 89.4762 90.7656 87.4128V81.4853C90.7656 79.4216 92.3904 77.7427 94.3875 77.7427H102.276C104.273 77.7427 105.898 79.4216 105.898 81.4853V87.4128C105.898 89.4765 104.273 91.1552 102.276 91.1552ZM94.3875 81.112C94.1882 81.112 94.0261 81.2796 94.0261 81.4856V87.413C94.0261 87.6189 94.1882 87.7863 94.3875 87.7863H102.276C102.475 87.7863 102.637 87.6187 102.637 87.413V81.4856C102.637 81.2796 102.475 81.112 102.276 81.112H94.3875Z" fill="white"/>
  <path d="M4.45689 71.4648H26.9813V108.561H2.39064C1.26665 108.561 0.355469 107.62 0.355469 106.458V75.7028C0.355469 73.3621 2.19175 71.4648 4.45689 71.4648Z" fill="#D1EFF2"/>
  <path d="M26.9811 99.4697V108.561H2.39064C1.26665 108.561 0.355469 107.619 0.355469 106.458V99.4697H26.9811Z" fill="#BDC0C3"/>
  <path d="M26.9802 97.7847H0.355469V101.154H26.9802V97.7847Z" fill="#76B7EB"/>
  <path d="M9.72412 89.4706H17.6127C18.7125 89.4706 19.6041 88.5492 19.6041 87.4127V81.4853C19.6041 80.3488 18.7125 79.4272 17.6127 79.4272H9.72412C8.62426 79.4272 7.73242 80.3486 7.73242 81.4853V87.4127C7.73264 88.549 8.62426 89.4706 9.72412 89.4706Z" fill="#B3E7FF"/>
  <path d="M17.6118 91.1552H9.72326C7.72613 91.1552 6.10156 89.4762 6.10156 87.4128V81.4853C6.10156 79.4216 7.72635 77.7427 9.72326 77.7427H17.6118C19.6089 77.7427 21.2337 79.4216 21.2337 81.4853V87.4128C21.2337 89.4765 19.6089 91.1552 17.6118 91.1552ZM9.72326 81.112C9.52394 81.112 9.36201 81.2796 9.36201 81.4856V87.413C9.36201 87.6189 9.52416 87.7863 9.72326 87.7863H17.6118C17.8111 87.7863 17.9733 87.6187 17.9733 87.413V81.4856C17.9733 81.2796 17.8111 81.112 17.6118 81.112H9.72326Z" fill="white"/>
  <path opacity="0.1" d="M4.45689 71.4651C2.19175 71.4651 0.355469 73.3623 0.355469 75.703V106.458C0.355469 107.62 1.26665 108.561 2.39064 108.561H13.6342C7.24435 102.462 7.23153 79.9013 7.26718 71.4648H4.45689V71.4651Z" fill="black"/>
  <path opacity="0.1" d="M89.7941 71.4648H85.0195V108.561H100.804C92.3977 102.036 90.1037 79.6226 89.7941 71.4648Z" fill="black"/>
  <path d="M85.0185 28.958H26.9805V108.559H85.0185V28.958Z" fill="#D1EFF2"/>
  <path d="M26.9805 99.4697V108.561H85.019V99.4697H26.9805Z" fill="#BDC0C3"/>
  <path d="M85.0186 97.7852H26.9805V101.154H85.0186V97.7852Z" fill="#76B7EB"/>
  <path d="M87.5791 14.48H24.4224C23.1989 14.48 22.207 15.5049 22.207 16.7692V26.6704C22.207 27.9347 23.1989 28.9596 24.4224 28.9596H87.5791C88.8027 28.9596 89.7945 27.9347 89.7945 26.6704V16.7692C89.7945 15.5049 88.8027 14.48 87.5791 14.48Z" fill="#76B7EB"/>
  <path opacity="0.1" d="M39.3652 14.48V18.1993C39.3652 20.3674 41.0722 22.1315 43.1706 22.1315H48.5966V27.7384C48.5966 28.1649 48.6647 28.5746 48.7868 28.9596H63.2152C63.3373 28.5746 63.4053 28.1649 63.4053 27.7384V22.1315H68.8316C70.9298 22.1315 72.637 20.3676 72.637 18.1993V14.48H39.3652Z" fill="black"/>
  <path d="M60.7817 8.57016V1.2212C60.7817 0.546697 60.2526 0 59.5999 0H52.4015C51.7487 0 51.2197 0.546697 51.2197 1.2212V8.56993C51.2197 9.10518 50.7997 9.53912 50.2818 9.53912H43.1701C42.5173 9.53912 41.9883 10.0858 41.9883 10.7603V18.1987C41.9883 18.8732 42.5173 19.4199 43.1701 19.4199H50.2818C50.7997 19.4199 51.2197 19.8538 51.2197 20.3891V27.7378C51.2197 28.4123 51.7487 28.959 52.4015 28.959H59.5999C60.2526 28.959 60.7817 28.4123 60.7817 27.7378V20.3891C60.7817 19.8538 61.2017 19.4199 61.7196 19.4199H68.8313C69.4841 19.4199 70.0131 18.8732 70.0131 18.1987V10.7603C70.0131 10.0858 69.4841 9.53912 68.8313 9.53912H61.7196C61.2017 9.53934 60.7817 9.1054 60.7817 8.57016Z" fill="#38648C"/>
  <path d="M66.4994 89.4707H45.5022C43.5616 89.4707 41.9883 91.0964 41.9883 93.1017V108.561H70.0131V93.1017C70.0131 91.0962 68.4401 89.4707 66.4994 89.4707Z" fill="#B3E7FF"/>
  <path opacity="0.1" d="M57.6316 89.4702H54.3711V108.561H57.6316V89.4702Z" fill="black"/>
  <path d="M41.0082 49.491C44.0633 49.491 46.5399 47.4529 46.5399 44.9389C46.5399 42.4248 44.0633 40.3867 41.0082 40.3867C37.9532 40.3867 35.4766 42.4248 35.4766 44.9389C35.4766 47.4529 37.9532 49.491 41.0082 49.491Z" fill="#F28B74"/>
  <path d="M70.9907 49.491C74.0457 49.491 76.5223 47.4529 76.5223 44.9389C76.5223 42.4248 74.0457 40.3867 70.9907 40.3867C67.9356 40.3867 65.459 42.4248 65.459 44.9389C65.459 47.4529 67.9356 49.491 70.9907 49.491Z" fill="#F28B74"/>
  <path d="M44.2318 42.0815C43.3315 42.0815 42.6016 41.3273 42.6016 40.397V38.3784C42.6016 37.4481 43.3315 36.6938 44.2318 36.6938C45.1321 36.6938 45.862 37.4481 45.862 38.3784V40.397C45.862 41.3273 45.1321 42.0815 44.2318 42.0815Z" fill="#495059"/>
  <path d="M67.7689 42.0815C66.8686 42.0815 66.1387 41.3273 66.1387 40.397V38.3784C66.1387 37.4481 66.8686 36.6938 67.7689 36.6938C68.6692 36.6938 69.3991 37.4481 69.3991 38.3784V40.397C69.3991 41.3273 68.6692 42.0815 67.7689 42.0815Z" fill="#495059"/>
  <path d="M56.0004 43.6318C54.3399 43.6318 52.7612 42.8887 51.6688 41.5932C51.0773 40.8918 51.148 39.8278 51.8268 39.2164C52.5056 38.6052 53.5353 38.6782 54.1269 39.3797C54.6001 39.9405 55.2829 40.2624 56.0006 40.2624C56.7181 40.2624 57.4011 39.9405 57.8743 39.3797C58.4657 38.678 59.4956 38.6052 60.1744 39.2164C60.8532 39.8276 60.9239 40.8915 60.3324 41.5932C59.2395 42.8887 57.6608 43.6318 56.0004 43.6318Z" fill="#495059"/>
  <path d="M74.549 62.9618H62.08C60.9895 62.9618 60.1055 62.0483 60.1055 60.9214V56.199C60.1055 55.0722 60.9895 54.1587 62.08 54.1587H74.549C75.6396 54.1587 76.5236 55.0722 76.5236 56.199V60.9214C76.5236 62.0485 75.6396 62.9618 74.549 62.9618Z" fill="#B3E7FF"/>
  <path d="M49.9201 62.9618H37.4511C36.3606 62.9618 35.4766 62.0483 35.4766 60.9214V56.199C35.4766 55.0722 36.3606 54.1587 37.4511 54.1587H49.9201C51.0106 54.1587 51.8946 55.0722 51.8946 56.199V60.9214C51.8946 62.0485 51.0106 62.9618 49.9201 62.9618Z" fill="#B3E7FF"/>
  <path opacity="0.1" d="M69.944 54.1592H66.6836V62.9616H69.944V54.1592Z" fill="black"/>
  <path opacity="0.1" d="M45.3151 54.1592H42.0547V62.9616H45.3151V54.1592Z" fill="black"/>
  <path d="M74.5482 64.6463H62.0791C60.0916 64.6463 58.4746 62.9755 58.4746 60.9214V56.199C58.4746 54.1452 60.0916 52.4741 62.0791 52.4741H74.5482C76.536 52.4741 78.1529 54.145 78.1529 56.199V60.9214C78.1529 62.9755 76.536 64.6463 74.5482 64.6463ZM62.0791 55.8433C61.8894 55.8433 61.7351 56.0027 61.7351 56.199V60.9214C61.7351 61.1177 61.8894 61.2772 62.0791 61.2772H74.5482C74.7382 61.2772 74.8925 61.1177 74.8925 60.9214V56.199C74.8925 56.0029 74.7379 55.8433 74.5482 55.8433H62.0791Z" fill="white"/>
  <path d="M49.9195 64.6463H37.4505C35.4627 64.6463 33.8457 62.9755 33.8457 60.9214V56.199C33.8457 54.1452 35.4627 52.4741 37.4505 52.4741H49.9195C51.9071 52.4741 53.524 54.145 53.524 56.199V60.9214C53.524 62.9755 51.9071 64.6463 49.9195 64.6463ZM37.4505 55.8433C37.2605 55.8433 37.1061 56.0027 37.1061 56.199V60.9214C37.1061 61.1177 37.2605 61.2772 37.4505 61.2772H49.9195C50.1092 61.2772 50.2636 61.1177 50.2636 60.9214V56.199C50.2636 56.0029 50.1092 55.8433 49.9195 55.8433H37.4505Z" fill="white"/>
  <path d="M74.549 80.6178H62.08C60.9895 80.6178 60.1055 79.7043 60.1055 78.5775V73.8553C60.1055 72.7284 60.9895 71.8149 62.08 71.8149H74.549C75.6396 71.8149 76.5236 72.7284 76.5236 73.8553V78.5777C76.5236 79.7043 75.6396 80.6178 74.549 80.6178Z" fill="#B3E7FF"/>
  <path d="M49.9201 80.6178H37.4511C36.3606 80.6178 35.4766 79.7043 35.4766 78.5775V73.8553C35.4766 72.7284 36.3606 71.8149 37.4511 71.8149H49.9201C51.0106 71.8149 51.8946 72.7284 51.8946 73.8553V78.5777C51.8946 79.7043 51.0106 80.6178 49.9201 80.6178Z" fill="#B3E7FF"/>
  <path opacity="0.1" d="M69.944 71.8135H66.6836V80.6159H69.944V71.8135Z" fill="black"/>
  <path opacity="0.1" d="M45.3151 71.8135H42.0547V80.6159H45.3151V71.8135Z" fill="black"/>
  <path d="M74.5482 82.3023H62.0791C60.0916 82.3023 58.4746 80.6315 58.4746 78.5777V73.8553C58.4746 71.8012 60.0916 70.1304 62.0791 70.1304H74.5482C76.536 70.1304 78.1529 71.8015 78.1529 73.8553V78.5777C78.1529 80.6315 76.536 82.3023 74.5482 82.3023ZM62.0791 73.4993C61.8894 73.4993 61.7351 73.659 61.7351 73.855V78.5774C61.7351 78.7735 61.8894 78.933 62.0791 78.933H74.5482C74.7382 78.933 74.8925 78.7735 74.8925 78.5774V73.8553C74.8925 73.659 74.7379 73.4995 74.5482 73.4995H62.0791V73.4993Z" fill="white"/>
  <path d="M49.9195 82.3023H37.4505C35.4627 82.3023 33.8457 80.6315 33.8457 78.5777V73.8553C33.8457 71.8012 35.4627 70.1304 37.4505 70.1304H49.9195C51.9071 70.1304 53.524 71.8015 53.524 73.8553V78.5777C53.524 80.6315 51.9071 82.3023 49.9195 82.3023ZM37.4505 73.4993C37.2605 73.4993 37.1061 73.659 37.1061 73.855V78.5774C37.1061 78.7735 37.2605 78.933 37.4505 78.933H49.9195C50.1092 78.933 50.2636 78.7735 50.2636 78.5774V73.8553C50.2636 73.659 50.1092 73.4995 49.9195 73.4995H37.4505V73.4993Z" fill="white"/>
  <path opacity="0.1" d="M26.9805 108.561H53.7126C39.7408 97.4199 38.2188 73.5424 38.1486 36.4039C38.1453 34.7285 39.4599 33.3683 41.0812 33.3683H85.019V28.959H26.9805V108.561Z" fill="black"/>
</svg>
