<svg width="114" height="118" viewBox="0 0 114 118" fill="none" xmlns="http://www.w3.org/2000/svg">
  <path d="M90.6874 25.124C90.3086 25.124 89.9296 24.9747 89.6406 24.6761C89.0625 24.0784 89.0625 23.11 89.6406 22.5126L92.2501 19.8161C94.2046 17.7965 96.641 16.3077 99.2955 15.511C100.081 15.2748 100.902 15.7421 101.13 16.5533C101.358 17.3649 100.906 18.2134 100.121 18.449C97.9444 19.1023 95.9466 20.3228 94.3436 21.9794L91.7341 24.6761C91.4452 24.9745 91.0662 25.124 90.6874 25.124Z" fill="#495059"/>
  <path d="M52.4168 33.911C58.1019 33.911 62.7106 29.1487 62.7106 23.2741C62.7106 17.3995 58.1019 12.6372 52.4168 12.6372C46.7317 12.6372 42.123 17.3995 42.123 23.2741C42.123 29.1487 46.7317 33.911 52.4168 33.911Z" fill="#F5D7B7"/>
  <path opacity="0.1" d="M52.4168 33.911C58.1019 33.911 62.7106 29.1487 62.7106 23.2741C62.7106 17.3995 58.1019 12.6372 52.4168 12.6372C46.7317 12.6372 42.123 17.3995 42.123 23.2741C42.123 29.1487 46.7317 33.911 52.4168 33.911Z" fill="black"/>
  <path d="M90.9988 73.7782C96.6839 73.7782 101.293 69.0159 101.293 63.1413C101.293 57.2667 96.6839 52.5044 90.9988 52.5044C85.3138 52.5044 80.7051 57.2667 80.7051 63.1413C80.7051 69.0159 85.3138 73.7782 90.9988 73.7782Z" fill="#F5D7B7"/>
  <path opacity="0.1" d="M90.9988 73.7782C96.6839 73.7782 101.293 69.0159 101.293 63.1413C101.293 57.2667 96.6839 52.5044 90.9988 52.5044C85.3138 52.5044 80.7051 57.2667 80.7051 63.1413C80.7051 69.0159 85.3138 73.7782 90.9988 73.7782Z" fill="black"/>
  <path d="M20.062 117.069C31.0147 117.069 39.8936 107.894 39.8936 96.5761C39.8936 85.2583 31.0147 76.0835 20.062 76.0835C9.10936 76.0835 0.230469 85.2583 0.230469 96.5761C0.230469 107.894 9.10936 117.069 20.062 117.069Z" fill="#38648C"/>
  <path opacity="0.1" d="M34.0837 111.067C41.8282 103.064 41.8282 90.0891 34.0837 82.0865C26.3392 74.0838 13.7827 74.0838 6.03823 82.0865C2.97458 85.252 1.12802 89.1966 0.488281 93.3028C2.10252 94.4891 4.35827 95.6389 7.41501 96.8606C9.99704 97.8925 13.1519 98.964 16.722 100.027C17.7506 103.716 18.7875 106.976 19.7861 109.644C20.9684 112.803 22.0811 115.134 23.2289 116.802C27.2029 116.14 31.0202 114.232 34.0837 111.067Z" fill="black"/>
  <path d="M92.0293 65.6511C103.899 53.3862 104.109 33.7183 92.4996 21.7218C80.8901 9.72529 61.8567 9.9429 49.9874 22.2079C38.1181 34.4728 37.9075 54.1406 49.517 66.1372C61.1266 78.1337 80.16 77.9161 92.0293 65.6511Z" fill="#F5D7B7"/>
  <path d="M62.5274 37.5759C64.4086 35.632 64.0186 32.0772 61.6563 29.6362C59.294 27.1951 55.8539 26.7921 53.9727 28.736C52.0914 30.68 52.4814 34.2347 54.8438 36.6758C57.2061 39.1169 60.6462 39.5198 62.5274 37.5759Z" fill="#F28B74"/>
  <path d="M77.1601 52.6961C75.2789 54.64 75.6689 58.1948 78.0312 60.6358C80.3935 63.0769 83.8336 63.4799 85.7148 61.5359C87.5961 59.592 87.2061 56.0372 84.8437 53.5962C82.4814 51.1551 79.0413 50.7521 77.1601 52.6961Z" fill="#F28B74"/>
  <path d="M66.4839 35.5364C66.1051 35.5364 65.7261 35.3871 65.4372 35.0885C64.859 34.4909 64.859 33.5225 65.4372 32.9251C65.7013 32.6521 65.8467 32.2893 65.8467 31.9032C65.8467 31.5169 65.7013 31.154 65.4372 30.8811C65.1729 30.6078 64.8217 30.4577 64.448 30.4577C64.0744 30.4577 63.7232 30.6078 63.4589 30.8809C62.8808 31.4785 61.9436 31.4783 61.3653 30.8811C60.7871 30.2837 60.7871 29.315 61.3653 28.7176C62.1888 27.8665 63.2837 27.3979 64.448 27.3979C65.6126 27.3979 66.7075 27.8665 67.5309 28.7176C68.3542 29.5684 68.8076 30.6998 68.8076 31.903C68.8076 33.106 68.3542 34.2374 67.5307 35.0883C67.2417 35.3871 66.8629 35.5364 66.4839 35.5364Z" fill="#495059"/>
  <path d="M84.6831 54.3424C84.3043 54.3424 83.9254 54.1931 83.6364 53.8944C83.0582 53.2968 83.0582 52.3284 83.6364 51.731C83.9005 51.4581 84.046 51.095 84.046 50.7089C84.046 50.3228 83.9005 49.9597 83.6364 49.6868C83.0908 49.1228 82.2035 49.1228 81.6582 49.6868C81.08 50.284 80.1426 50.284 79.5645 49.6868C78.9863 49.0892 78.9863 48.1207 79.5645 47.5233C81.2642 45.767 84.03 45.767 85.7299 47.5233C86.5532 48.3743 87.0068 49.5057 87.0068 50.7089C87.0068 51.9121 86.5534 53.0435 85.7299 53.8944C85.4409 54.1928 85.0619 54.3424 84.6831 54.3424Z" fill="#495059"/>
  <path d="M73.0496 47.5362C71.5867 47.5362 70.1789 46.9382 69.1385 45.8633C68.0083 44.6954 67.423 43.0791 67.5326 41.4286C67.5886 40.5856 68.2965 39.9484 69.1109 40.0072C69.9265 40.0649 70.5423 40.7951 70.4865 41.6381C70.4355 42.406 70.7074 43.1575 71.232 43.6996C71.7571 44.2422 72.4838 44.5216 73.2272 44.4702C74.0424 44.4153 74.7497 45.0486 74.8057 45.8914C74.8618 46.7344 74.2459 47.4646 73.4303 47.5226C73.303 47.5317 73.1761 47.5362 73.0496 47.5362Z" fill="#495059"/>
  <path opacity="0.05" d="M62.9354 14.1934C58.2111 15.6572 53.7417 18.3292 49.9888 22.2072C38.1194 34.4722 37.909 54.1402 49.5188 66.1371C56.2501 73.0928 65.4768 75.9416 74.3561 74.7178C55.4092 68.216 49.6066 35.5245 62.9354 14.1934Z" fill="black"/>
  <path d="M25.9289 57.6872C38.032 57.8371 65.3854 60.8148 81.1331 69.3092C83.5906 70.6348 84.7019 73.6378 83.7278 76.3198C81.2579 83.1198 74.7398 93.1673 68.7735 99.2118C65.7572 102.268 61.6168 103.86 57.3992 103.613C40.7557 102.635 4.03348 93.8997 1.35809 88.2388C-1.35935 82.4888 7.17748 67.6936 17.3818 60.3638C19.8851 58.5656 22.8805 57.6494 25.9289 57.6872Z" fill="#76B7EB"/>
  <path opacity="0.1" d="M25.9289 57.6872C38.032 57.8371 65.3854 60.8148 81.1331 69.3092C83.5906 70.6348 84.7019 73.6378 83.7278 76.3198C81.2579 83.1198 74.7398 93.1673 68.7735 99.2118C65.7572 102.268 61.6168 103.86 57.3992 103.613C40.7557 102.635 4.03348 93.8997 1.35809 88.2388C-1.35935 82.4888 7.17748 67.6936 17.3818 60.3638C19.8851 58.5656 22.8805 57.6494 25.9289 57.6872Z" fill="black"/>
  <path opacity="0.1" d="M17.3789 60.3642C14.7635 62.2427 12.2585 64.6124 10.0234 67.1938C11.056 75.0554 12.8335 84.5121 14.9972 93.4012C15.1449 94.008 15.2935 94.605 15.4427 95.1965C28.2536 99.2508 46.631 102.945 57.1857 103.599C57.6385 102.998 58.0735 102.39 58.4867 101.776C60.7105 98.4702 61.8608 94.5585 61.8133 90.4645C61.7503 85.0239 61.0541 73.7999 59.0074 61.7296C46.3696 58.9226 33.3101 57.7785 25.9264 57.6871C22.8775 57.6498 19.8822 58.566 17.3789 60.3642Z" fill="black"/>
  <path d="M57.6969 90.5153C57.552 78.0089 54.6701 49.7437 46.4497 33.4709C45.1669 30.9315 42.2608 29.7832 39.6653 30.7898C33.0846 33.342 23.3613 40.0774 17.5117 46.2426C14.5542 49.3594 13.013 53.6378 13.2528 57.996C14.1991 75.1943 22.6525 113.141 28.1308 115.905C33.6953 118.713 48.0134 109.892 55.1068 99.3475C56.8467 96.7606 57.7334 93.6654 57.6969 90.5153Z" fill="#76B7EB"/>
  <g opacity="0.1">
    <path opacity="0.1" d="M22.9913 78.4617C22.3001 78.4619 21.682 77.9592 21.5413 77.232C21.4152 76.5812 20.8262 72.5977 20.8262 71.8257C20.8262 70.9806 21.489 70.2959 22.3066 70.2959C23.1216 70.2959 23.7826 70.9763 23.787 71.8175C23.803 72.3227 24.2957 75.8632 24.4445 76.6317C24.605 77.46 24.0852 78.2661 23.2834 78.432C23.1853 78.4519 23.0874 78.4617 22.9913 78.4617ZM23.787 71.8257H23.789H23.787Z" fill="black"/>
    <path opacity="0.1" d="M39.1051 50.6639C38.9492 50.6639 38.7907 50.6384 38.6345 50.5845C37.8588 50.3173 37.4411 49.4468 37.6995 48.6452C37.8079 48.3092 38.1018 47.6702 38.763 46.2714C38.9458 45.8847 39.1185 45.5192 39.1813 45.376C39.5184 44.6062 40.3954 44.2646 41.1404 44.6131C41.8851 44.9617 42.2157 45.868 41.8786 46.6377C41.7979 46.8219 41.6326 47.1715 41.4234 47.6143C41.1338 48.2268 40.5948 49.3672 40.5058 49.621C40.2991 50.2612 39.7237 50.6639 39.1051 50.6639Z" fill="black"/>
    <path opacity="0.1" d="M45.9906 80.4686C45.7382 80.4686 45.4825 80.4019 45.2486 80.2616C44.5248 79.8271 42.5026 78.6325 41.8473 78.3237C41.1033 77.9733 40.775 77.0662 41.1142 76.2973C41.4533 75.5283 42.3311 75.1889 43.0752 75.5397C43.9812 75.9664 46.4563 77.4478 46.7356 77.6155C47.4426 78.0398 47.683 78.976 47.2725 79.7066C46.9975 80.1957 46.5009 80.4686 45.9906 80.4686Z" fill="black"/>
    <path opacity="0.1" d="M35.848 106.121C35.0305 106.121 34.3676 105.436 34.3676 104.591C34.3676 103.748 34.1547 100.57 34.0522 99.042C34.0194 98.5517 33.9946 98.1813 33.9851 98.0196C33.9363 97.1762 34.5583 96.4515 35.3745 96.4013C36.1927 96.3456 36.8918 96.9936 36.9408 97.8368C36.9499 97.9941 36.9739 98.3539 37.0059 98.8307C37.162 101.159 37.3284 103.716 37.3284 104.591C37.3284 105.436 36.6656 106.121 35.848 106.121Z" fill="black"/>
    <path opacity="0.1" d="M65.0863 79.4648C64.4757 79.4648 63.9043 79.0715 63.6899 78.4427C63.4183 77.646 63.8234 76.7724 64.5944 76.4917C65.1617 76.2853 66.4928 75.4609 67.3738 74.9155C68.6623 74.1176 69.0901 73.861 69.5131 73.7735C70.3145 73.6085 71.0949 74.1449 71.2552 74.9734C71.4056 75.7501 70.9582 76.5068 70.2412 76.7351C70.0198 76.8438 69.3737 77.244 68.8958 77.5399C67.7388 78.2565 66.4273 79.0683 65.5782 79.3775C65.4155 79.4366 65.2495 79.4648 65.0863 79.4648ZM70.096 76.7732C70.0954 76.7732 70.0948 76.7734 70.0942 76.7736C70.0948 76.7734 70.0954 76.7732 70.096 76.7732Z" fill="black"/>
  </g>
</svg>
