<svg width="114" height="101" viewBox="0 0 114 101" fill="none" xmlns="http://www.w3.org/2000/svg">
  <path d="M102.683 48.4355H11.0254V64.0006H102.683V48.4355Z" fill="#E8E9EA"/>
  <path opacity="0.1" d="M102.685 48.4355H96.6094V64.0006H102.685V48.4355Z" fill="black"/>
  <path opacity="0.1" d="M11.0254 48.436V64.0011H45.5553C38.5504 59.3863 37.047 52.8442 37.4959 48.436H11.0254Z" fill="black"/>
  <path d="M75.3446 68.2376C74.5898 68.2376 73.9078 67.7007 73.7324 66.908L68.1201 41.5464C67.9164 40.6254 68.4737 39.7082 69.3649 39.4977C70.2565 39.2881 71.1438 39.863 71.3475 40.7839L76.9597 66.1454C77.1634 67.0663 76.6062 67.9835 75.715 68.194C75.5909 68.2232 75.4667 68.2376 75.3446 68.2376Z" fill="#76B7EB"/>
  <path opacity="0.14" d="M75.3446 68.2376C74.5898 68.2376 73.9078 67.7007 73.7324 66.908L68.1201 41.5464C67.9164 40.6254 68.4737 39.7082 69.3649 39.4977C70.2565 39.2881 71.1438 39.863 71.3475 40.7839L76.9597 66.1454C77.1634 67.0663 76.6062 67.9835 75.715 68.194C75.5909 68.2232 75.4667 68.2376 75.3446 68.2376Z" fill="black"/>
  <path d="M59.981 67.4356C59.2381 67.4356 58.5625 66.9151 58.3758 66.1366L54.1493 48.5337C53.6007 46.2488 54.0911 43.8747 55.4948 42.0203C56.8984 40.166 59.0103 39.1025 61.2887 39.1025H79.9487C82.8491 39.1025 85.4863 40.8714 86.6671 43.6088L88.9931 49.0006C90.5144 52.5271 91.2857 56.2727 91.2857 60.1336V65.7247C91.2857 66.6693 90.5448 67.4351 89.6305 67.4351C88.7161 67.4351 87.9752 66.6693 87.9752 65.7247V60.1336C87.9752 56.7558 87.3003 53.4788 85.9692 50.3933L83.6432 45.0015C82.9939 43.4961 81.5437 42.5234 79.9487 42.5234H61.2887C60.0357 42.5234 58.8744 43.1082 58.1026 44.1281C57.3306 45.148 57.0609 46.4534 57.3626 47.71L61.589 65.3128C61.8091 66.2296 61.2684 67.1573 60.3809 67.3847C60.2472 67.4189 60.113 67.4356 59.981 67.4356Z" fill="#76B7EB"/>
  <path d="M110.977 43.4381H105.062C103.749 43.4381 102.684 44.5383 102.684 45.8954V62.0521C102.684 63.1286 101.839 64.0013 100.798 64.0013H12.9133C11.8715 64.0013 11.0269 63.1286 11.0269 62.0521V32.6287C11.0269 31.2715 9.96223 30.1714 8.64883 30.1714H2.73354C1.42014 30.1716 0.355469 31.2718 0.355469 32.6287V65.9298C0.355469 69.7669 3.36586 72.8777 7.07919 72.8777H106.632C110.345 72.8777 113.355 69.7669 113.355 65.9298V45.8957C113.355 44.5385 112.291 43.4381 110.977 43.4381Z" fill="#38648C"/>
  <path d="M36.6404 48.5649H20.4208C18.9478 48.5649 17.5832 47.7655 16.8266 46.4594L16.1422 45.2781C15.549 44.2541 15.549 42.9758 16.1422 41.9516L16.8266 40.77C17.5832 39.4641 18.9478 38.6646 20.4208 38.6646H36.6404C38.1134 38.6646 39.478 39.4639 40.2346 40.77L40.919 41.9516C41.5122 42.9756 41.5122 44.2538 40.919 45.2781L40.2346 46.4594C39.478 47.7655 38.1134 48.5649 36.6404 48.5649Z" fill="#76B7EB"/>
  <path d="M93.6595 84.2119H20.0537C19.1393 84.2119 18.3984 83.4461 18.3984 82.5015C18.3984 81.5568 19.1393 80.791 20.0537 80.791H93.6595C94.5739 80.791 95.3148 81.5568 95.3148 82.5015C95.3148 83.4461 94.5739 84.2119 93.6595 84.2119Z" fill="#38648C"/>
  <path d="M20.0531 72.877H14.1523V89.9399H20.0531V72.877Z" fill="#76B7EB"/>
  <path opacity="0.15" d="M20.0531 72.877H14.1523V78.2868H20.0531V72.877Z" fill="black"/>
  <path d="M17.1006 100.008C20.2531 100.008 22.8087 97.3668 22.8087 94.1092C22.8087 90.8517 20.2531 88.2109 17.1006 88.2109C13.9482 88.2109 11.3926 90.8517 11.3926 94.1092C11.3926 97.3668 13.9482 100.008 17.1006 100.008Z" fill="#495059"/>
  <path d="M17.1034 95.8202C18.0181 95.8202 18.7596 95.054 18.7596 94.1088C18.7596 93.1637 18.0181 92.3975 17.1034 92.3975C16.1888 92.3975 15.4473 93.1637 15.4473 94.1088C15.4473 95.054 16.1888 95.8202 17.1034 95.8202Z" fill="#76B7EB"/>
  <path d="M99.5567 72.8765H93.6562V89.9395H99.5567V72.8765Z" fill="#76B7EB"/>
  <path opacity="0.15" d="M99.5587 72.877H93.6582V78.2868H99.5587V72.877Z" fill="black"/>
  <path d="M96.6084 100.008C99.7609 100.008 102.316 97.3668 102.316 94.1092C102.316 90.8517 99.7609 88.2109 96.6084 88.2109C93.456 88.2109 90.9004 90.8517 90.9004 94.1092C90.9004 97.3668 93.456 100.008 96.6084 100.008Z" fill="#495059"/>
  <path d="M96.6093 95.8202C97.5239 95.8202 98.2654 95.054 98.2654 94.1088C98.2654 93.1637 97.5239 92.3975 96.6093 92.3975C95.6946 92.3975 94.9531 93.1637 94.9531 94.1088C94.9531 95.054 95.6946 95.8202 96.6093 95.8202Z" fill="#76B7EB"/>
  <path opacity="0.1" d="M40.0829 64.0013H12.9133C11.8715 64.0013 11.0269 63.1286 11.0269 62.0521V32.6287C11.0269 31.2715 9.96224 30.1714 8.64883 30.1714H2.73355C1.42014 30.1716 0.355469 31.2718 0.355469 32.6287V65.9298C0.355469 69.7669 3.36586 72.8777 7.07919 72.8777H48.3039C43.5477 70.5152 41.1436 67.0462 40.0829 64.0013Z" fill="black"/>
  <path opacity="0.1" d="M20.4208 38.665C18.9478 38.665 17.5832 39.4644 16.8266 40.7705L16.1422 41.9521C15.549 42.9761 15.549 44.2543 16.1422 45.2785L16.8266 46.4599C17.5832 47.7658 18.9478 48.5653 20.4208 48.5653H26.8631C22.6209 46.7844 22.3989 41.3529 23.6309 38.6653L20.4208 38.665Z" fill="black"/>
  <path d="M56.8552 30.997C65.0055 30.997 71.6127 24.1695 71.6127 15.7475C71.6127 7.32546 65.0055 0.498047 56.8552 0.498047C48.7048 0.498047 42.0977 7.32546 42.0977 15.7475C42.0977 24.1695 48.7048 30.997 56.8552 30.997Z" fill="#F28B74"/>
  <path d="M59.8709 12.0202V7.38464C59.8709 6.95908 59.5372 6.61426 59.1254 6.61426H54.5846C54.173 6.61426 53.8391 6.95908 53.8391 7.38464V12.0204C53.8391 12.3579 53.5743 12.6318 53.2474 12.6318H48.7612C48.3495 12.6318 48.0156 12.9767 48.0156 13.4022V18.0943C48.0156 18.5199 48.3493 18.8647 48.7612 18.8647H53.2474C53.5743 18.8647 53.8391 19.1384 53.8391 19.4762V24.1119C53.8391 24.5373 54.1728 24.8823 54.5846 24.8823H59.1254C59.5372 24.8823 59.8709 24.5375 59.8709 24.1119V19.4762C59.8709 19.1386 60.1358 18.8647 60.4626 18.8647H64.9489C65.3607 18.8647 65.6944 18.5199 65.6944 18.0943V13.402C65.6944 12.9764 65.3607 12.6316 64.9489 12.6316H60.4626C60.1358 12.6314 59.8709 12.3579 59.8709 12.0202Z" fill="white"/>
</svg>
